# xmcd CD database file
#
# Track frame offsets:
#	182
#	15987
#	37162
#	55632
#	70805
#	85092
#	100497
#	119692
#	143462
#	162875
#	181447
#	199202
#	217130
#	231535
#
# Disc length: 3266 seconds
#
# Revision: 0
# Processed by: cddbd v1.5.2PL0 Copyright (c) Steve Scherf et al.
# Submitted via: CDex 1.70beta2
#
DISCID=c90cc00e
DTITLE=Jim Beam - Southern Rock
DYEAR=1996
DGENRE=Country
TTITLE0=1. Steppenwolf - Born to be Wild
TTITLE1=2. Lynyrd Synyrd - Sweet Home Alabama
TTITLE2=3. Little River Band - Love is a Bridge
TTITLE3=4. Gary Moore - Parisienne Walkways
TTITLE4=5. Climax Blues Band - Coulnd`t get it right
TTITLE5=6. The James Gang - Midnight Man
TTITLE6=7. Night Ranger - Rock in America
TTITLE7=8. Joe Walsh - Rocky Montain Way
TTITLE8=9. Lynyrd Skynyrd - Wiskey Rock-A-Roller
TTITLE9=10. Jonny Winter - Stranger Blues
TTITLE10=11. Nelson - Love and Affection
TTITLE11=12. Blackfood - Nobody rides for free
TTITLE12=13. Neil Young - Little thing called love
TTITLE13=14. John Lee Hooker - One Bourbon, one Scotch, one Beer
EXTD=YEAR: 1996
EXTT0=
EXTT1=
EXTT2=
EXTT3=
EXTT4=
EXTT5=
EXTT6=
EXTT7=
EXTT8=
EXTT9=
EXTT10=
EXTT11=
EXTT12=
EXTT13=
PLAYORDER=
